<svg xmlns="http://www.w3.org/2000/svg" xmlns:xlink="http://www.w3.org/1999/xlink" width="194.553" height="234.047" viewBox="0 0 194.553 234.047">
    <defs>
        <linearGradient id="ahbwy1jtja" x1="-.164" y1=".5" x2="1.164" y2=".5" gradientUnits="objectBoundingBox">
            <stop offset=".201" stop-color="#ffd584"/>
            <stop offset=".917" stop-color="#fcd271"/>
        </linearGradient>
        <linearGradient id="sox6rr15zb" x1="0" y1=".5" x2="1" y2=".5" xlink:href="#ahbwy1jtja"/>
        <linearGradient id="ubxq6fekpc" x1=".476" y1=".181" x2="1.476" y2=".181" xlink:href="#ahbwy1jtja"/>
    </defs>
    <g data-name="Group 10764" transform="translate(-294.56 -52.527)">
        <ellipse data-name="Ellipse 298" cx="54.285" cy="17.536" rx="54.285" ry="17.536" transform="translate(300.707 251.502)" style="mix-blend-mode:multiply;isolation:isolate;opacity:.26;fill:#a5b7c6"/>
        <path data-name="Path 19498" d="M308.5 175.771c-1.907 12.976 5.032 26.38 15.834 33.816s24.838 9.3 37.7 6.763c11.361-2.24 22.145-7.687 33.723-7.939a38.569 38.569 0 0 1 25.782 9.276c7.245 6.261 12.52 15.477 21.609 18.49 7.857 2.6 16.625-.311 23.363-5.117 16.264-11.6 23.153-34.067 18.022-53.374s-21.121-34.862-39.988-41.429c-6.832-2.378-14.565-4.037-19-9.753-9.662-12.457 4.343-31.152-.906-46.018-4.642-13.147-21.807-16.739-35.6-14.719-26.739 3.917-42.834 21.842-47.258 47.79-1.82 10.674-4.174 19.035-11.07 27.731-8.629 10.884-20.059 19.854-22.211 34.483z" transform="translate(2.903 2.709)" style="fill:#02b286"/>
        <path data-name="Rectangle 1749" transform="translate(313.515 52.527)" style="fill:#5e3c69" d="M0 0h159.708v106.578H0z"/>
        <path data-name="Rectangle 1750" transform="translate(320.731 58.935)" style="fill:#fdfdfd" d="M0 0h145.276v93.762H0z"/>
        <path data-name="Rectangle 1751" transform="rotate(14.53 -72.167 1462.63)" style="fill:#a5b7c6" d="M0 0h14.317v14.317H0z"/>
        <path data-name="Rectangle 1752" transform="rotate(14.452 -93.975 1772.712)" style="fill:#5b89c2" d="M0 0h14.316v14.316H0z"/>
        <path data-name="Rectangle 1753" transform="rotate(-24.95 452.48 -896.217)" style="fill:url(#ahbwy1jtja)" d="M0 0h14.316v14.316H0z"/>
        <path data-name="Rectangle 1754" transform="rotate(-24.95 477.078 -851.182)" style="fill:#a5b7c6" d="M0 0h14.316v14.316H0z"/>
        <path data-name="Rectangle 1755" transform="rotate(-24.95 372.415 -775.064)" style="fill:#5e3c69" d="M0 0h14.316v14.316H0z"/>
        <path data-name="Rectangle 1756" transform="rotate(2.56 -2595.555 9541.558)" style="fill:#cd4b76" d="M0 0h14.316v14.316H0z"/>
        <path data-name="Rectangle 1757" transform="rotate(2.56 -1394.257 10088.688)" style="fill:#cd4b76" d="M0 0h14.316v14.316H0z"/>
        <g data-name="Group 10670">
            <path data-name="Rectangle 1758" style="fill:#5e3c69" d="M0 0h41.973v.807H0z" transform="translate(383.404 66.784)"/>
            <path data-name="Rectangle 1759" transform="translate(383.404 76.587)" style="fill:#5e3c69" d="M0 0h41.973v.807H0z"/>
            <path data-name="Rectangle 1760" transform="translate(383.404 81.024)" style="fill:#5e3c69" d="M0 0h41.973v.807H0z"/>
            <path data-name="Rectangle 1761" transform="translate(383.404 71.352)" style="fill:#5e3c69" d="M0 0h41.973v.807H0z"/>
        </g>
        <g data-name="Group 10671">
            <path data-name="Rectangle 1762" style="fill:#5e3c69" d="M0 0h20.987v.869H0z" transform="translate(437.419 122.454)"/>
            <path data-name="Rectangle 1763" transform="translate(437.419 133.021)" style="fill:#5e3c69" d="M0 0h20.987v.869H0z"/>
            <path data-name="Rectangle 1764" transform="translate(437.419 137.804)" style="fill:#5e3c69" d="M0 0h20.987v.87H0z"/>
            <path data-name="Rectangle 1765" transform="translate(437.419 127.378)" style="fill:#5e3c69" d="M0 0h20.987v.87H0z"/>
        </g>
        <path data-name="Path 19499" d="M392.975 80.538a23.47 23.47 0 0 0 1.334 19.686" transform="translate(20.635 5.968)" style="fill:none;stroke:#5e3c69;stroke-miterlimit:10"/>
        <path data-name="Path 19500" d="M390.855 95.416a17.861 17.861 0 0 0 3.757 3.168 34.933 34.933 0 0 1 .712-5.721" transform="translate(20.515 8.594)" style="fill:none;stroke:#5e3c69;stroke-miterlimit:10"/>
        <path data-name="Path 19501" d="M365.93 119.2c3.022 6.307 9.773 9.936 16.427 12.089a67.636 67.636 0 0 0 39.857.46" transform="translate(15.205 14.204)" style="fill:none;stroke:#5e3c69;stroke-miterlimit:10"/>
        <path data-name="Path 19502" d="M407.864 128.955a14.968 14.968 0 0 0 5.417.444q-.6 1.754-1.195 3.507" transform="translate(24.138 16.282)" style="fill:none;stroke:#5e3c69;stroke-miterlimit:10"/>
        <path data-name="Path 19503" d="M321.834 79.778A27.036 27.036 0 0 1 341.6 64.28" transform="translate(5.811 2.504)" style="fill:none;stroke:#5e3c69;stroke-miterlimit:10"/>
        <path data-name="Path 19504" d="m335.26 62.717 3.246 1.144a.952.952 0 0 1 .733 1.433l-.878 3.1" transform="translate(8.671 2.171)" style="fill:none;stroke:#5e3c69;stroke-miterlimit:10"/>
        <g data-name="Group 10693">
            <path data-name="Path 19505" d="m311.919 119.1 17.2-10.481s8.045-5.145 11.655-1.924l4.914 4.385c.511.79-2.14 6.008-2.967 6.457l-26.16 14.207a65.508 65.508 0 0 0-4.642-12.644z" transform="translate(3.698 11.314)" style="fill:url(#sox6rr15zb)"/>
            <path data-name="Path 19506" d="M299.622 95.995a10.313 10.313 0 0 0-.431-.836c-.249-.427-.6-1.437-1.093-1.624-.04-.016-1.211-.25-1.025.08-1.27-2.257-2.278.677-2.418 1.837a19.754 19.754 0 0 0 1.152 8.79c.888 2.046 2.835 6.08 5.722 4.8 3.9-1.721 2.268-8.354 1.8-11.5-1.28.494-1.437 1.7-2 2.738-.538-.844-1.285-3.38-1.707-4.285z" transform="translate(0 8.577)" style="fill:#ce9b99"/>
            <path data-name="Path 19507" d="M334.672 123.1c-1.494 2.134-13.454 9.55-15.9 10.488a5.577 5.577 0 0 1-6.823-2.478c-4.6-8.082-13.857-23.589-14.415-25.026-.751-1.936 7.279-4.428 7.279-4.428l16.427 25.394z" transform="translate(.622 10.467)" style="fill:url(#sox6rr15zb)"/>
            <path data-name="Path 19508" d="M380.2 76.358c.15-.3.311-.587.489-.869.279-.443.69-1.5 1.22-1.679.044-.015 1.291-.218 1.082.124 1.433-2.341 2.387.805 2.49 2.039a20.953 20.953 0 0 1-1.559 9.266c-1.02 2.133-3.238 6.33-6.247 4.867-4.058-1.975-2.079-8.938-1.461-12.251 1.334.573 1.457 1.854 2.012 2.977.6-.874 1.489-3.532 1.974-4.474z" transform="translate(17.176 4.381)" style="fill:#ce9b99"/>
            <path data-name="Path 19509" d="m337.657 112.124 9.966.279 20.431-10.643 14.591-19.36s8.41 2.949 7.54 4.97-14.322 26.086-14.322 26.086l-29.194 17.106z" transform="translate(9.182 6.365)" style="fill:url(#sox6rr15zb)"/>
            <g data-name="Group 10674">
                <g data-name="Group 10672">
                    <path data-name="Path 19510" d="M340.707 223.364c-3.526.894-4.722.734-8.359.3l-6.29 4.576s-7.216 4.912-6.616 6.865 19.995-3.191 19.995-3.191a3.205 3.205 0 0 0 2.2-4.282c-.637-2.085-1.263-2.467-.93-4.268z" transform="translate(5.293 36.395)" style="fill:#5e3c69"/>
                </g>
                <g data-name="Group 10673">
                    <path data-name="Path 19511" d="M349.514 224.448c3.6.55 4.771.275 8.348-.513l6.7 3.947s7.656 4.192 7.248 6.194-20.21-1.245-20.21-1.245a3.206 3.206 0 0 1-2.606-4.05c.437-2.13 1.024-2.572.52-4.333z" transform="translate(11.575 36.517)" style="fill:#5e3c69"/>
                </g>
                <path data-name="Path 19512" d="m326.2 143.045 1.541 100.742s11.354 1.075 12.332-2.1 4.081-94.654 4.081-94.654z" transform="translate(6.74 19.284)" style="fill:#5b89c2"/>
                <path data-name="Path 19513" d="m326.5 145.434 1.173 97.844s11.354 1.075 12.332-2.1 4.162-93.3 4.162-93.3z" transform="translate(6.805 19.793)" style="opacity:.32;fill:#f7b9b9;mix-blend-mode:multiply;isolation:isolate"/>
                <path data-name="Path 19514" d="m363.1 145.673 3.213 96.165s-12.287 2.875-13.578.812-9.018-79.272-9.018-79.272l-4.673-6.535-11.719-13.7z" transform="translate(6.981 19.304)" style="fill:#5b89c2"/>
            </g>
            <g data-name="Group 10692">
                <path data-name="Path 19515" d="m338.355 103.208-12.475 5.767.3 27.825.112 10.357a37.176 37.176 0 0 1-.261 4.346c-.058.547-.318 1.334-.038 1.854.314.58.841.409 1.234.792 1.211 1.182.222 3.295 1.861 4.5 1.338.984 3.37.838 4.932.8 2.865-.07 5.73-.235 8.594-.355l16.278-.683c1.81-.075 3.925-.32 4.845-1.835a7.17 7.17 0 0 0 .65-2.669c.175-1.1.957-1.7 1.259-2.66.4-1.277-.352-2.882-.469-4.16q-.453-4.953-.917-9.9-.906-9.68-1.834-19.359l-1.2-12.445-16.126-2.527z" transform="translate(6.669 10.722)" style="fill:url(#sox6rr15zb)"/>
                <g data-name="Group 10691">
                    <g data-name="Group 10690">
                        <g data-name="Group 10678">
                            <path data-name="Path 19516" d="M327.565 90.437a2.284 2.284 0 0 0-.886 2.072 5.344 5.344 0 0 0 4.16 4.961 1.828 1.828 0 0 0 1.911-.507 2.052 2.052 0 0 0-.214-2.028c-.644-1.224-3.123-5.593-4.971-4.498z" transform="translate(6.843 8.04)" style="fill:#ce9b99"/>
                            <g data-name="Group 10677">
                                <g data-name="Group 10675">
                                    <path data-name="Path 19517" d="M327.279 92a1.665 1.665 0 0 1 .892.177 4 4 0 0 1 1.687 1.4 6.653 6.653 0 0 1 .915 1.988 2.882 2.882 0 0 1 .175.887 4.177 4.177 0 0 1-.335-.833 8.366 8.366 0 0 0-.949-1.9 4.369 4.369 0 0 0-1.564-1.385c-.484-.246-.828-.292-.821-.334z" transform="translate(6.971 8.408)" style="fill:#5e3c69"/>
                                </g>
                                <g data-name="Group 10676">
                                    <path data-name="Path 19518" d="M329.844 95.915c-.025.018-.159-.1-.347-.324a3.647 3.647 0 0 1-.6-.975 2.009 2.009 0 0 1-.118-1.156c.068-.3.194-.445.218-.431s-.033.182-.052.455a2.4 2.4 0 0 0 .173 1.046 6.171 6.171 0 0 0 .518.963c.149.242.235.401.208.422z" transform="translate(7.282 8.629)" style="fill:#5e3c69"/>
                                </g>
                            </g>
                        </g>
                        <g data-name="Group 10682">
                            <path data-name="Path 19519" d="M347.858 88.208a2.284 2.284 0 0 1 1.321 1.826 5.343 5.343 0 0 1-2.96 5.757 1.831 1.831 0 0 1-1.976-.072 2.051 2.051 0 0 1-.243-2.026c.361-1.335 1.814-6.144 3.858-5.485z" transform="translate(10.503 7.589)" style="fill:#ce9b99"/>
                            <g data-name="Group 10681">
                                <g data-name="Group 10679">
                                    <path data-name="Path 19520" d="M348.1 89.724a1.652 1.652 0 0 0-.831.37 3.994 3.994 0 0 0-1.337 1.74 6.669 6.669 0 0 0-.451 2.141 2.873 2.873 0 0 0 .025.9 4.236 4.236 0 0 0 .142-.887 8.316 8.316 0 0 1 .5-2.066 4.364 4.364 0 0 1 1.218-1.7c.42-.339.746-.461.734-.498z" transform="translate(10.845 7.924)" style="fill:#5e3c69"/>
                                </g>
                                <g data-name="Group 10680">
                                    <path data-name="Path 19521" d="M346.076 94.1c.029.013.132-.135.267-.392a3.609 3.609 0 0 0 .372-1.084 2.022 2.022 0 0 0-.139-1.155c-.132-.274-.289-.391-.308-.371s.072.171.152.433a2.41 2.41 0 0 1 .062 1.058 6.279 6.279 0 0 1-.292 1.054c-.095.267-.145.441-.114.457z" transform="translate(10.973 8.217)" style="fill:#5e3c69"/>
                                </g>
                            </g>
                        </g>
                        <path data-name="Path 19522" d="M343.432 98.753c.341.062 1.059 4.691 1.161 5.143.614 2.718.462 4.89-3.053 5.243-5.9.592-5.824-7.9-6.715-11.933z" transform="translate(8.578 9.518)" style="fill:#ce9b99"/>
                        <path data-name="Path 19523" d="m336.613 104.807-1.789-7.6 8.608 1.547 1.059 5.98a16.8 16.8 0 0 1-7.878.073z" transform="translate(8.578 9.518)" style="fill:#e29ea6;opacity:.32;mix-blend-mode:multiply;isolation:isolate"/>
                        <path data-name="Path 19524" d="M348.99 96.709a9.462 9.462 0 0 1-2.137 6.12c-2.6 3.155-6.155 3.656-9.914 2.547-3.125-.922-4.743-2.329-5.527-5.5-.814-3.287-2.112-6.492-1.228-9.874a9.19 9.19 0 0 1 2.8-4.554A19.159 19.159 0 0 1 337.1 82.8c2.438-1.279 6.093-2.962 8.526-.178 2.806 3.211 3.226 9.886 3.363 13.935l.001.152z" transform="translate(7.527 6.09)" style="fill:#ce9b99"/>
                        <path data-name="Path 19525" d="M331.42 92.67a2.244 2.244 0 0 1-.4 1.952 1.287 1.287 0 0 1-1.83.115c-.536-.6-.207-1.524-.221-2.324a4.7 4.7 0 0 0-.67-2.052 6.893 6.893 0 0 1-.825-2.006c-.227-1.346.837-3.588 1.441-4.756a12.34 12.34 0 0 1 3.39-4.177 11.79 11.79 0 0 1 18.6 6.714 7.139 7.139 0 0 1-.289 4.555c-.29.62-.73 1.431-1.42 1.457-.626.023-2.122-1.292-2.68-1.633l-1.629-.991c-1.38-.839-2.853-1.788-3.418-3.3-.551-.17-1.1.312-1.357.825a5.65 5.65 0 0 1-.8 1.521 1.491 1.491 0 0 1-2.55-1.118 3.354 3.354 0 0 0-2.324 5.117 4.433 4.433 0 0 1-3.321.269 4.228 4.228 0 0 1-.809-.351c-2.45-1.393-2.94-3.753-2.41-6.146" transform="translate(7.005 5.226)" style="fill:#5e3c69"/>
                        <path data-name="Path 19526" d="M331.1 98.969a8.588 8.588 0 0 0 1.657 4.607c1.254 1.386 3.244 1.79 5.1 2.02a16.065 16.065 0 0 0 4.767.036 8.61 8.61 0 0 0 5.7-3.669 10.391 10.391 0 0 0 1.435-6.128 30.481 30.481 0 0 0-.855-5.062 13.935 13.935 0 0 0-.353-1.885 11.229 11.229 0 0 0-1.133-1.279 11.647 11.647 0 0 0 .234 3.338 7.493 7.493 0 0 1-.008 3.617c-.362 1.167-1.718 1.64-2.891 1.784-.782.1-1.582.017-2.362.137a2.446 2.446 0 0 0-1.921 1.215c-.7-.93-2.112-.773-3.246-.52a31.759 31.759 0 0 1-3.3.734c-1.238.137-1.069-.431-1.4-1.6a62.31 62.31 0 0 0-1.912-6.092c-1.051 1.006-.5 2.191-.309 3.45.269 1.762.531 3.528.797 5.297z" transform="translate(7.546 7.474)" style="fill:#5e3c69"/>
                        <g data-name="Group 10689">
                            <g data-name="Group 10683">
                                <path data-name="Path 19527" d="M332.756 89.61c-.084-.033-.025-.257.247-.565a3.771 3.771 0 0 1 1.456-.934 4.67 4.67 0 0 1 1.828-.3c.472.029.725.137.7.209-.05.16-1.1.149-2.238.588-1.149.417-1.807 1.072-1.993 1.002z" transform="translate(8.13 7.516)" style="fill:#5e3c69"/>
                            </g>
                            <g data-name="Group 10684">
                                <path data-name="Path 19528" d="M339.3 87.816c.008-.074.324-.163.844-.194a7.349 7.349 0 0 1 1.935.154 3.752 3.752 0 0 1 1.492.614c.28.234.237.435.1.463a1.8 1.8 0 0 1-.685-.171 16.897 16.897 0 0 0-1.43-.382 10.478 10.478 0 0 1-2.256-.484z" transform="translate(9.532 7.474)" style="fill:#5e3c69"/>
                            </g>
                            <g data-name="Group 10686">
                                <g data-name="Group 10685">
                                    <path data-name="Path 19529" d="M341.344 91.883c.352-.04.638-.543.523-1.11s-.582-.974-.932-.923-.46.533-.349 1.088.401.985.758.945z" transform="translate(9.796 7.951)" style="fill:#5e3c69"/>
                                </g>
                            </g>
                            <path data-name="Path 19530" d="M338.013 90.145c.169.557.295 1.111.42 1.663l.365 1.651.089.412.044.2a.347.347 0 0 0 .04.106.382.382 0 0 0 .189.161.541.541 0 0 0 .142.039.67.67 0 0 1 .309.118.738.738 0 0 1 .29.5.967.967 0 0 1-.075.508 1.686 1.686 0 0 1-.621.651 2.285 2.285 0 0 0 .343-.742.5.5 0 0 0-.187-.53.207.207 0 0 0-.093-.011.963.963 0 0 1-.275-.042.928.928 0 0 1-.486-.336.848.848 0 0 1-.135-.281l-.057-.212-.1-.421a11.956 11.956 0 0 1-.241-1.709 8.6 8.6 0 0 1 .039-1.725z" transform="translate(9.244 8.014)" style="fill:#5e3c69"/>
                            <g data-name="Group 10687">
                                <path data-name="Path 19531" d="M340.992 97.094c-.057-.021-.19.12-.448.3a3.2 3.2 0 0 1-1.163.5 4.059 4.059 0 0 1-1.37.032c-.359-.05-.583-.115-.613-.075s.154.171.537.286a3.322 3.322 0 0 0 1.577.057 2.426 2.426 0 0 0 1.263-.656c.225-.238.265-.427.217-.444z" transform="translate(9.126 9.495)" style="fill:#fff"/>
                            </g>
                            <g data-name="Group 10688">
                                <path data-name="Path 19532" d="M337.224 92a2.042 2.042 0 0 0-.953-.494 2.346 2.346 0 0 0-1 .047 3.523 3.523 0 0 0-.951.4 3.317 3.317 0 0 0-.82.677l-.031.038a.1.1 0 0 1-.13.017c-.153-.1-.079-.274.1-.233l-.161.055a2.287 2.287 0 0 1 .732-.992 2.69 2.69 0 0 1 1.132-.535 2.045 2.045 0 0 1 1.268.116 1.485 1.485 0 0 1 .814.904z" transform="translate(8.244 8.182)" style="fill:#5e3c69"/>
                            </g>
                        </g>
                    </g>
                </g>
                <path data-name="Path 19533" d="m349.7 105.921-1.082-1.788-3.5-.274-3.518 4.271-4.63-3.894-3.487.4-1.014 1.826 3.756 7.84 5.095-5.662.866.926.956 23.386.574 14.032.271 6.6c.04.984-.542 5.018.745 5.414 1.346.414.562-2.4.536-3.052q-.08-2.1-.163-4.2l-.73-18.868-.849-21.878 2.71 2.894z" transform="translate(8.077 10.936)" style="fill:#cfcfcf;opacity:.32;mix-blend-mode:multiply;isolation:isolate"/>
                <path data-name="Path 19534" d="m343.557 102.835 3.5.285 1.083 1.844-3.459 8.219-4.995-5.5z" transform="translate(9.614 10.718)" style="fill:#5e3c69"/>
                <path data-name="Path 19535" d="m345.651 117.85.255 7.451 2.027 2.525 5.473-.1.091-1.4-5.238.214-1.432-1.837-.136-7.336z" transform="translate(10.885 13.813)" style="fill:#cfcfcf;opacity:.32;mix-blend-mode:multiply;isolation:isolate"/>
                <path data-name="Path 19536" d="m345.548 117.514 9.073-.751-.2 1.984-8.609.626z" transform="translate(10.863 13.685)" style="fill:#5e3c69"/>
                <path data-name="Path 19537" d="m337.239 103.146-3.487.414-1.013 1.883 3.761 8.085 4.787-5.68z" transform="translate(8.134 10.784)" style="fill:#5e3c69"/>
                <path data-name="Path 19538" d="M327.6 150.276c.161-.066-.314-.09-.141-.1 0 0-1.05-3.665.862-3.752 2.682-.121 9.707-.324 12.389-.446l13.639-.62c2.319-.106 6.572-.309 8.893-.353 1.4-.025 1.829 4.407-.383 4.448-1.526.029-3.142.468-4.635.518l-9.473.314c-3.657.121-7.313.29-10.971.417-1.828.063-3.657.118-5.487.15-1.483.032-3.367.263-4.693-.576z" transform="translate(6.949 19.702)" style="fill:#5e3c69"/>
                <path data-name="Rectangle 1766" transform="rotate(-1.066 9053.066 -18249.499)" style="fill:#5b89c2" d="M0 0h1.624v7.105H0z"/>
                <path data-name="Rectangle 1767" transform="rotate(-1.062 9069.763 -19449.958)" style="fill:#5b89c2" d="M0 0h1.624v7.105H0z"/>
                <path data-name="Rectangle 1768" transform="rotate(-1.062 9157.784 -18765.384)" style="fill:url(#ubxq6fekpc)" d="M0 0h6.522v2.679H0z"/>
                <path data-name="Rectangle 1769" transform="rotate(-1.063 9191.664 -18923.845)" style="fill:#5e3c69" d="M0 0h4.775v.932H0z"/>
            </g>
        </g>
    </g>
</svg>
