<svg xmlns="http://www.w3.org/2000/svg" xmlns:xlink="http://www.w3.org/1999/xlink" width="228.152" height="205.307" viewBox="0 0 228.152 205.307">
    <defs>
        <linearGradient id="m7l05lpfda" y1=".5" x2="1" y2=".5" gradientUnits="objectBoundingBox">
            <stop offset=".201" stop-color="#ffd584"/>
            <stop offset=".917" stop-color="#fcd271"/>
        </linearGradient>
        <linearGradient id="blsrn9cbvb" x1="25.318" y1=".5" x2="26.318" y2=".5" xlink:href="#m7l05lpfda"/>
        <linearGradient id="one9t2wedc" x1="23.944" y1=".5" x2="24.944" y2=".5" xlink:href="#m7l05lpfda"/>
        <linearGradient id="s9bqp25smd" x1="-.003" y1=".49" x2=".966" y2=".49" xlink:href="#m7l05lpfda"/>
    </defs>
    <g data-name="Group 10765" transform="translate(-478.247 -52.492)">
        <ellipse data-name="Ellipse 300" cx="114.076" cy="16.781" rx="114.076" ry="16.781" transform="translate(478.247 224.237)" style="mix-blend-mode:multiply;isolation:isolate;opacity:.26;fill:#a5b7c6"/>
        <path data-name="Path 19611" d="M520.422 181.782c2.225 12.351 12.6 22.4 24.67 25.848s25.365.866 36.264-5.356c9.623-5.5 17.746-13.723 28.17-17.481a36.909 36.909 0 0 1 26.215.557c8.481 3.471 16.074 10.225 25.239 10.187 7.92-.031 14.985-5.349 19.633-11.763 11.217-15.48 10.62-37.959.081-53.91s-29.784-25.185-48.9-25.392c-6.922-.075-14.443.775-20.208-3.058-12.561-8.354-5.556-29.582-14.848-41.467-8.217-10.511-24.882-8.538-36.782-2.5-23.062 11.7-32.2 32.868-28.3 57.753 1.6 10.237 2.015 18.541-1.591 28.531-4.517 12.506-12.153 24.126-9.643 38.051z" transform="translate(6.703)" style="fill:#fdcc6b"/>
        <g data-name="Group 10731" transform="translate(606.895 174.694)">
            <path data-name="Line 27" transform="translate(20.062 4.243)" style="fill:none;stroke:#a5b7c6;stroke-linecap:round;stroke-linejoin:round;stroke-width:3px" d="M0 0v50.931"/>
            <path data-name="Path 19612" d="m594.3 208.518 1.832-2.8a6.1 6.1 0 0 1 5.1-2.757h13.969a6.1 6.1 0 0 1 5.282 3.039l2.081 3.586" transform="translate(-588.231 -150.495)" style="fill:none;stroke:#a5b7c6;stroke-linecap:round;stroke-linejoin:round;stroke-width:3px"/>
            <rect data-name="Rectangle 1771" width="40.124" height="8.487" rx="3.484" transform="translate(.001)" style="fill:#5e3c69"/>
            <path data-name="Path 19613" d="M629.2 161.419a4.256 4.256 0 0 1-4.243 4.244h-31.641a4.256 4.256 0 0 1-4.244-4.244" transform="translate(-589.072 -157.176)" style="fill:#e29ea6;opacity:.32;mix-blend-mode:multiply;isolation:isolate"/>
            <path data-name="Path 19614" d="M598.782 210.15a4.855 4.855 0 1 1-4.855-4.856 4.854 4.854 0 0 1 4.855 4.856z" transform="translate(-589.072 -150.12)" style="fill:#5e3c69"/>
            <path data-name="Path 19615" d="M624.177 210.15a4.855 4.855 0 1 1-4.856-4.856 4.855 4.855 0 0 1 4.856 4.856z" transform="translate(-584.988 -150.12)" style="fill:#5e3c69"/>
            <path data-name="Path 19616" d="M612 210.15a4.855 4.855 0 1 1-4.856-4.856A4.855 4.855 0 0 1 612 210.15z" transform="translate(-586.946 -150.12)" style="fill:#5e3c69"/>
        </g>
        <g data-name="Group 10748">
            <path data-name="Path 19617" d="M611.2 63.4a18.73 18.73 0 0 1 16.173 3.687 13.464 13.464 0 0 1 4.8 7.448c.873 4.25-.845 9.1 1.481 12.768 2.615 4.119 9.277 4.778 10.863 9.392 1.227 3.573-1.422 7.411-.97 11.162.737 6.123 8.826 8.628 11.089 14.366 1.5 3.8.074 8.114-1.891 11.691-2.54 4.624-6.122 8.839-10.848 11.183s-10.7 2.551-15.119-.325c-2.352-1.529-4.252-3.869-6.941-4.673-3.1-.93-6.383.427-9.616.632a13.991 13.991 0 0 1-14.253-11.972c-.4-3.626.669-7.363-.182-10.912a10.461 10.461 0 0 0-5.464-6.842c-2.539-1.253-5.647-1.5-7.678-3.473-2.38-2.31-2.351-6.311-.778-9.231s4.346-4.976 7.11-6.808 5.666-3.594 7.732-6.187c3.49-4.38 1.63-8.014 2.78-12.618s7.501-8.244 11.712-9.288z" transform="translate(16.487 1.671)" style="fill:#5e3c69"/>
            <path data-name="Path 19618" d="M645.794 111.141a83.006 83.006 0 0 0 7.623-15.595c.727-1.991 1.355-6.389 2.915-7.155.613-.3 2.182.024 3.065-.346a12.187 12.187 0 0 0 3.248-2.353l2.784-2.518a6.372 6.372 0 0 0 1.6-1.876 2.168 2.168 0 0 0-.178-2.333c-.764-.854-2.123-.649-3.242-.405-2.561.558-4.555-.849-7.108.7a3.275 3.275 0 0 0-.806-4.824c-.769 2-1.312 4.676-2.475 6.461-1.268 1.946-2.922 3.47-4.059 5.608l-11.376 21.38" transform="translate(25.657 3.53)" style="fill:#ab777d"/>
            <path data-name="Path 19619" d="M606.817 105.712c2.378 4.033 7.952 5.764 12.062 7.386a57.157 57.157 0 0 0 12.942 3.31c3.208.456 8.226 1.654 11.355.69a14.246 14.246 0 0 0 7.643-6.235 39.322 39.322 0 0 0 3.782-9.042c-2.129-2.023-5.5-5.449-7.632-7.472-2.319 2.816-3.617 7.184-7.3 8.206-3.209.89-6.728.14-10.027-.724-6.31-1.654-10.626-6.308-17.17-7.732-5.444-1.185-7.847 5.556-6.376 10.023a8.139 8.139 0 0 0 .721 1.59z" transform="translate(20.493 6.669)" style="fill:url(#m7l05lpfda)"/>
            <g data-name="Group 10732">
                <path data-name="Path 19620" d="M555.229 120.558a2.244 2.244 0 0 1 1.214-.026c1.033.175 7.277.982 7.645 1.76a10.655 10.655 0 0 0-1.293-1.567c-2.664-3.639 4.337.294 4.814.521a9.248 9.248 0 0 0 3.325.683 69.65 69.65 0 0 0 20.715-1.256c-.013 2.807-.032 5.611.019 8.412a57.188 57.188 0 0 1-7.629-.24 66.11 66.11 0 0 0-7.665-.751c-6.342.1-11.084 4.012-17.127.258a5.016 5.016 0 0 1-1.84-1.764 2.434 2.434 0 0 1 .015-2.488l-2.35-2.059a1.224 1.224 0 0 1-.39-.484.858.858 0 0 1 .547-.999z" transform="translate(12.287 10.727)" style="fill:#ab777d"/>
            </g>
            <path data-name="Path 19621" d="M603.86 96.577a1.55 1.55 0 0 1 .923.276 2.358 2.358 0 0 1 .62 1.959c0 8.394-2.254 15.957-5.553 23.733-1.293 2.971-2.9 7.872-5.366 10.031a14.245 14.245 0 0 1-9.317 3.241 39.41 39.41 0 0 1-9.681-1.52c-.606-2.874-1.753-7.544-2.36-10.418.091.427 7.6-1.619 8.041-1.728a3.524 3.524 0 0 0 3.026-2.7l5.795-13.428a18.406 18.406 0 0 1 2.752-4.916c2.514-2.888 6.525-3.908 10.313-4.461a4.947 4.947 0 0 1 .807-.069z" transform="translate(15.259 7.09)" style="fill:url(#m7l05lpfda)"/>
            <path data-name="Path 19622" d="M606.817 105.712c2.378 4.033 7.952 5.764 12.062 7.386a57.157 57.157 0 0 0 12.942 3.31c3.208.456 8.226 1.654 11.355.69a14.246 14.246 0 0 0 7.643-6.235 39.322 39.322 0 0 0 3.782-9.042c-2.129-2.023-5.5-5.449-7.632-7.472-2.319 2.816-3.617 7.184-7.3 8.206-3.209.89-6.728.14-10.027-.724-6.31-1.654-10.626-6.308-17.17-7.732-5.444-1.185-7.847 5.556-6.376 10.023a8.139 8.139 0 0 0 .721 1.59z" transform="translate(20.493 6.669)" style="fill:#e29ea6;opacity:.32;mix-blend-mode:multiply;isolation:isolate"/>
            <path data-name="Path 19623" d="M603.86 96.577a1.55 1.55 0 0 1 .923.276 2.358 2.358 0 0 1 .62 1.959c0 8.394-2.254 15.957-5.553 23.733-1.293 2.971-2.9 7.872-5.366 10.031a14.245 14.245 0 0 1-9.317 3.241 39.41 39.41 0 0 1-9.681-1.52c-.606-2.874-1.753-7.544-2.36-10.418.091.427 7.6-1.619 8.041-1.728a3.524 3.524 0 0 0 3.026-2.7l5.795-13.428a18.406 18.406 0 0 1 2.752-4.916c2.514-2.888 6.525-3.908 10.313-4.461a4.947 4.947 0 0 1 .807-.069z" transform="translate(15.259 7.09)" style="fill:#e29ea6;opacity:.32;mix-blend-mode:multiply;isolation:isolate"/>
            <g data-name="Group 10733">
                <path data-name="Path 19624" d="M577.028 153.267s-.107 11.009 7.881 57c-.535 1.877-1.1 4.992.135 6.827s11.211-3.768 9.041-7c-6.838-10.167-.953-37.384-1.054-47.652l-3.991-11z" transform="translate(15.886 15.915)" style="fill:#e29ea6;opacity:.32;mix-blend-mode:multiply;isolation:isolate"/>
                <path data-name="Path 19625" d="M577.028 153.267s-.107 11.009 7.881 57c-.535 1.877-1.1 4.992.135 6.827s11.211-3.768 9.041-7c-6.838-10.167-.953-37.384-1.054-47.652l-3.991-11z" transform="translate(15.886 15.915)" style="fill:#ab777d"/>
                <path data-name="Path 19626" d="M593.282 198.56c-3.243 2.123-4.494 2.359-8.281 3.128l-4.822 6.9s-5.64 7.557-4.406 9.392 19.007-10.08 19.007-10.08a3.589 3.589 0 0 0 .82-5.211c-1.314-1.949-2.066-2.137-2.318-4.129z" transform="translate(15.656 23.491)" style="fill:url(#blsrn9cbvb)"/>
            </g>
            <g data-name="Group 10734">
                <path data-name="Path 19627" d="M578.522 149.49s-3.583 10.359-10.59 56.524c-1.1 1.59-2.618 4.337-2.033 6.493s11.778.283 10.748-3.507c-3.241-11.944 10.927-35.626 14.08-45.356l-.289-11.752z" transform="translate(14.075 15.6)" style="fill:#ab777d"/>
                <path data-name="Path 19628" d="M578.522 149.49s-3.583 10.359-10.59 56.524c-1.1 1.59-2.618 4.337-2.033 6.493s11.778.283 10.748-3.507c-3.241-11.944 10.927-35.626 14.08-45.356l-.289-11.752z" transform="translate(14.075 15.6)" style="fill:#e29ea6;opacity:.32;mix-blend-mode:multiply;isolation:isolate"/>
                <path data-name="Path 19629" d="M578.528 197.226c-3.736.893-4.99.687-8.81.116l-6.735 4.858s-7.717 5.2-7.132 7.358 21.134-3 21.134-3a3.51 3.51 0 0 0 2.423-4.639c-.622-2.291-1.273-2.725-.88-4.693z" transform="translate(12.475 23.277)" style="fill:url(#one9t2wedc)"/>
            </g>
            <path data-name="Path 19630" d="M602.805 134.285s-27.011 6.1-28.136 9.6-7.105 59.785-7.105 59.785l9.242 1.244 12.51-43.769 16.516-11.464z" transform="translate(14.364 13.155)" style="fill:#69b78b"/>
            <path data-name="Path 19631" d="M602.805 134.285s-27.011 6.1-28.136 9.6-7.105 59.785-7.105 59.785l9.242 1.244 12.51-43.769 16.516-11.464z" transform="translate(14.364 13.155)" style="fill:#e29ea6;opacity:.32;mix-blend-mode:multiply;isolation:isolate"/>
            <path data-name="Path 19632" d="M626.786 135.922a24.477 24.477 0 0 1 5.461 15.422c-.076 9.535-13.633 10.516-21.006 11.609a140.169 140.169 0 0 1-16.929 1.515l-.029 42.059-11.952-.49s-9.933-54.3-8.28-57.666 26.349-10.359 26.349-10.359l15.585-2.943c2.742-.518 5.158-.471 7.353-2.6a23.365 23.365 0 0 1 3.448 3.453z" transform="translate(15.378 12.862)" style="fill:#69b78b"/>
            <g data-name="Group 10747">
                <g data-name="Group 10746">
                    <path data-name="Path 19633" d="M611.866 87.682c.622 1.99.846 4.138 1.715 6.047 1 2.2 7.634 4.572 9.587 5.473a1.59 1.59 0 0 1 1 1.434c-.03.5-2.986 2.466-3.328 2.829-3.186 3.392-17.388 6.568-21.954 4.152-1.781-.943-6.019-4.979-5.036-6.906.789-1.549 10.958-3.539 11.333-5.289.219-1.026-.972-2.5-1.32-3.427l-1.8-4.8z" transform="translate(18.568 5.581)" style="fill:#ab777d"/>
                    <path data-name="Path 19634" d="m603.981 95.4-3.081-8.208 9.808.49 2.036 6.509a18.872 18.872 0 0 1-8.763 1.209z" transform="translate(19.726 5.581)" style="fill:#e29ea6;opacity:.32;mix-blend-mode:multiply;isolation:isolate"/>
                    <path data-name="Path 19635" d="M595.837 86.862a12.021 12.021 0 0 0 1.583 5.367 6.642 6.642 0 0 0 3.607 2.871c4.747 2.143 11.808 1.984 14.462-4.211.818.637 2.012-.059 2.469-1.105a8.9 8.9 0 0 0 .36-2.935c.081-.843.261-1.639.3-2.5a17.334 17.334 0 0 0-.539-6.238 10.27 10.27 0 0 0-3.557-4.874 22.743 22.743 0 0 0-4.949-2.69c-2.911-1.268-7.262-2.911-9.887.32-1.522 1.874-1.391 5.823-2.124 8.207-.771 2.51-1.802 5.052-1.725 7.788z" transform="translate(18.911 2.652)" style="fill:#ab777d"/>
                    <g data-name="Group 10738">
                        <path data-name="Path 19636" d="M618.73 81.7a2.72 2.72 0 0 1 .808 2.558 6.364 6.364 0 0 1-5.507 5.4 2.177 2.177 0 0 1-2.206-.824 2.448 2.448 0 0 1 .49-2.379c.905-1.384 4.352-6.272 6.415-4.755z" transform="translate(21.457 4.65)" style="fill:#ab777d"/>
                        <g data-name="Group 10737">
                            <g data-name="Group 10735">
                                <path data-name="Path 19637" d="M617.778 83.813a3.683 3.683 0 0 0 .615-.163 1.974 1.974 0 0 0-1.077.107 4.751 4.751 0 0 0-2.164 1.463 7.938 7.938 0 0 0-1.314 2.25 3.367 3.367 0 0 0-.31 1.031 5.2 5.2 0 0 0 .492-.95 9.939 9.939 0 0 1 1.347-2.145 5.2 5.2 0 0 1 2.014-1.459c.144-.056.277-.1.4-.133" transform="translate(21.756 5.006)" style="fill:#5e3c69"/>
                            </g>
                            <g data-name="Group 10736">
                                <path data-name="Path 19638" d="M614.368 88.037c.028.026.2-.1.448-.342a4.341 4.341 0 0 0 .829-1.085 2.4 2.4 0 0 0 .274-1.357c-.045-.361-.178-.55-.208-.536s.016.219.008.547a2.866 2.866 0 0 1-.327 1.218 7.4 7.4 0 0 1-.726 1.081c-.207.269-.329.446-.298.474z" transform="translate(21.891 5.183)" style="fill:#5e3c69"/>
                            </g>
                        </g>
                    </g>
                    <g data-name="Group 10745">
                        <g data-name="Group 10739">
                            <path data-name="Path 19639" d="M610.9 81.442c.1-.035.039-.3-.276-.68a4.48 4.48 0 0 0-1.7-1.16 5.555 5.555 0 0 0-2.166-.417c-.562.019-.867.139-.843.225.055.192 1.309.214 2.644.774 1.351.535 2.117 1.337 2.341 1.258z" transform="translate(20.532 4.293)" style="fill:#5e3c69"/>
                        </g>
                        <g data-name="Group 10740">
                            <path data-name="Path 19640" d="M606.853 86.928c-.079-.039-.294.143-.693.363a4.627 4.627 0 0 1-1.756.547 5.864 5.864 0 0 1-1.984-.165c-.51-.128-.824-.257-.873-.2s.2.272.732.5a4.813 4.813 0 0 0 2.268.325 3.524 3.524 0 0 0 1.925-.752c.365-.325.449-.586.381-.618z" transform="translate(19.828 5.538)" style="fill:#5e3c69"/>
                        </g>
                        <g data-name="Group 10741">
                            <path data-name="Path 19641" d="M602.071 78.426c.019-.088-.209-.246-.622-.38a4.49 4.49 0 0 0-1.631-.186 3 3 0 0 0-1.427.42c-.308.214-.341.452-.237.508s.3-.008.618-.066a12.051 12.051 0 0 1 1.3-.167c1.028-.082 1.954.052 1.999-.129z" transform="translate(19.275 4.078)" style="fill:#5e3c69"/>
                        </g>
                        <path data-name="Path 19642" d="M603.123 79.565a10.047 10.047 0 0 1-.02 2.055 14.319 14.319 0 0 1-.352 2.019l-.132.5-.038.129a1.525 1.525 0 0 1-.059.159 1.348 1.348 0 0 1-.178.286 1.214 1.214 0 0 1-.558.389 1.08 1.08 0 0 1-.34.053.24.24 0 0 0-.11.009.6.6 0 0 0-.24.626 2.736 2.736 0 0 0 .38.894 2.008 2.008 0 0 1-.713-.8 1.154 1.154 0 0 1-.073-.606.885.885 0 0 1 .358-.59.8.8 0 0 1 .371-.131.516.516 0 0 0 .154-.043.575.575 0 0 0 .239-.214.828.828 0 0 0 .079-.15c.009-.027.019-.053.026-.081l.028-.115.122-.486.5-1.946c.164-.65.333-1.302.556-1.957z" transform="translate(19.69 4.354)" style="fill:#5e3c69"/>
                        <g data-name="Group 10743">
                            <g data-name="Group 10742">
                                <path data-name="Path 19643" d="M606.544 83.911c.346.1.816-.254.933-.833a1.063 1.063 0 0 0-.506-1.237c-.353-.093-.643.316-.761.882s-.017 1.083.334 1.188z" transform="translate(20.572 4.717)" style="fill:#5e3c69"/>
                            </g>
                            <path data-name="Path 19644" d="M606.869 82.361a1.375 1.375 0 0 0 .936-.562.82.82 0 0 1-.69.951 1.285 1.285 0 0 0 1.26-.049 1.346 1.346 0 0 1-1.6.283" transform="translate(20.671 4.713)" style="fill:#5e3c69"/>
                        </g>
                        <g data-name="Group 10744">
                            <path data-name="Path 19645" d="M601.289 83.13a1.925 1.925 0 0 0-.524-.943 2.061 2.061 0 0 0-.875-.45 3.323 3.323 0 0 0-1.035-.091 3.4 3.4 0 0 0-1.083.239l-.049.019a.088.088 0 0 1-.12-.048 4.806 4.806 0 0 1-.189-.539 4.411 4.411 0 0 1 .409.367l-.168-.028a2.613 2.613 0 0 1 1.191-.583 2.547 2.547 0 0 1 1.265.052 1.776 1.776 0 0 1 1.006.738 1.573 1.573 0 0 1 .172 1.267z" transform="translate(19.165 4.588)" style="fill:#5e3c69"/>
                            <path data-name="Path 19646" d="m597.872 81.588-.059-.411.322.219a.18.18 0 0 1-.2.295.146.146 0 0 1-.063-.103z" transform="translate(19.229 4.613)" style="fill:#5e3c69"/>
                        </g>
                    </g>
                </g>
            </g>
            <path data-name="Path 19647" d="M614.359 83.364a2.12 2.12 0 0 0 .035-2.968 4.658 4.658 0 0 0-2.831-1.088l-9.609-1.385q.047-.838.1-1.673a10.2 10.2 0 0 1-7.32 2.774 10.317 10.317 0 0 1 3.943-8.639 12.378 12.378 0 0 1 8.663-2.427c4.982.395 9.183 3.3 12.2 7.439 1.182 1.624 2.164 3.019.947 5.081a6.628 6.628 0 0 1-6.128 2.886z" transform="translate(18.728 2.481)" style="fill:#5e3c69"/>
            <path data-name="Path 19648" d="M592.98 98.845s-5.755 16.231-6.352 18.736c-1.145 8.352 9 17.025 7.957 24.959 5.874 3.772 27.387-2.745 27.387-2.745l2.3-36.227 1.03-3.773.458-.716-8.36-3.765-15.656 10.951-1.776-9.346z" transform="translate(17.416 6.887)" style="fill:#cd4b76"/>
            <path data-name="Path 19649" d="M593.121 98.4s-5.971 16.889-6.591 19.495c-1.2 8.685 9.231 17.677 8.134 25.927 6.042 3.906 28.222-2.923 28.222-2.923l2.463-37.669 1.071-3.925.474-.745-8.61-3.892-16.158 11.424-1.806-9.711z" transform="translate(17.399 6.783)" style="fill:url(#s9bqp25smd)"/>
            <path data-name="Path 19650" d="M591.408 119.006a4.95 4.95 0 0 1 2.919-1.147c2.677-.266 5.332.664 8 1.129s5.755.326 7.524-1.579c.931-1 1.461-2.452 2.764-2.962a3.028 3.028 0 0 1 3.6 1.554 3.894 3.894 0 0 1-.5 3.911 8.021 8.021 0 0 1-3.352 2.468 22.344 22.344 0 0 1-10.563 1.52c-2.084-.145-14.561-.973-10.392-4.894z" transform="translate(18.063 9.938)" style="fill:#e29ea6;opacity:.32;mix-blend-mode:multiply;isolation:isolate"/>
        </g>
        <g data-name="Group 10751" transform="translate(504.322 136.44)">
            <g data-name="Group 10749">
                <path data-name="Rectangle 1772" style="fill:#a5b7c6" d="M0 0h4.871v91.186H0z" transform="translate(159.247 15.099)"/>
                <path data-name="Rectangle 1773" style="fill:#e29ea6;opacity:.32;mix-blend-mode:multiply;isolation:isolate" d="M0 0h4.871v10.612H0z" transform="translate(159.247 15.099)"/>
            </g>
            <g data-name="Group 10750">
                <path data-name="Rectangle 1774" style="fill:#a5b7c6" d="M0 0h4.871v91.186H0z" transform="translate(9.661 15.099)"/>
                <path data-name="Rectangle 1775" style="fill:#e29ea6;opacity:.32;mix-blend-mode:multiply;isolation:isolate" d="M0 0h4.871v10.612H0z" transform="translate(9.661 15.099)"/>
            </g>
            <rect data-name="Rectangle 1776" width="158.11" height="8.677" rx=".492" transform="translate(6.008 11)" style="fill:#5e3c69"/>
            <rect data-name="Rectangle 1777" width="172.232" height="11.62" rx=".492" style="fill:#a5b7c6"/>
        </g>
        <g data-name="Group 10752">
            <path data-name="Path 19651" d="m534.576 98.621 10.213 29.845h46.246l-.341-1.537-18.7-.578-8.615-27.751z" transform="translate(9.059 7.416)" style="fill:#5b89c2"/>
            <path data-name="Path 19652" d="M552.718 111.32a2.121 2.121 0 0 1-1.169 2.675 2.039 2.039 0 0 1-2.276-1.753 2.121 2.121 0 0 1 1.17-2.676 2.038 2.038 0 0 1 2.275 1.754z" transform="translate(11.409 9.171)" style="fill:#fefefe"/>
        </g>
        <g data-name="Group 10753">
            <path data-name="Path 19653" d="M522.693 105.768c.657-1.68 1.675-3.177 2.376-1.947a7.281 7.281 0 0 1 .44 3.565 18.718 18.718 0 0 1-.731 3.7c-.787 2.752-3.174 12.484-4.312 8.574-1.114-3.818 1.16-11.172 2.227-13.892z" transform="translate(6.741 8.182)" style="fill:#69b78b"/>
            <path data-name="Path 19654" d="M520.791 123.807c.754-8.006-.144-16.053-2.509-21.853-.218-.535-.535-1.1-.916-.847a2.041 2.041 0 0 0-.553 1.027 21.059 21.059 0 0 0-.721 5.964 49.2 49.2 0 0 0 2.254 15.708z" transform="translate(6.086 7.809)" style="fill:#69b78b"/>
            <path data-name="Path 19655" d="M519.365 106.625c.345-1.917 1.074-3.877 1.983-3.164a5.067 5.067 0 0 1 1.07 3 19.234 19.234 0 0 1-.053 3.806c-.277 2.972-.872 13.25-2.691 10.345-1.774-2.839-.866-10.88-.309-13.987z" transform="translate(6.494 8.173)" style="fill:#c6de8a"/>
            <path data-name="Path 19656" d="M513.72 111.984c-.547-1.761-.8-3.89.255-4.138.62-.146 1.5.491 2.171 1.354a13.183 13.183 0 0 1 1.6 2.948c1.058 2.506 5.011 10.857 2.268 10.227-2.679-.617-5.407-7.537-6.294-10.391z" transform="translate(5.629 8.899)" style="fill:#c6de8a"/>
            <path data-name="Path 19657" d="M521.625 122.562c1.48-1.126 3.782-5.035 4.7-6.445a13.14 13.14 0 0 0 1.514-3 6.967 6.967 0 0 0 .361-3.51c-.4-1.513-1.709-.694-2.708.486-1.619 1.913-5.414 7.415-5.184 11.529a2.37 2.37 0 0 0 .2.936z" transform="translate(6.762 9.054)" style="fill:#c6de8a"/>
            <path data-name="Path 19658" d="M526.5 125.565a9.759 9.759 0 0 0 .859-4.044 9.935 9.935 0 0 0-.561-3.307H515.42a9.933 9.933 0 0 0-.561 3.307 9.741 9.741 0 0 0 .86 4.044z" transform="translate(5.888 10.569)" style="fill:#5e3c69"/>
        </g>
    </g>
</svg>
