<svg xmlns="http://www.w3.org/2000/svg" xmlns:xlink="http://www.w3.org/1999/xlink" width="192.919" height="194.654" viewBox="0 0 192.919 194.654">
    <defs>
        <linearGradient id="6epbd84fea" y1=".5" x2="1" y2=".5" gradientUnits="objectBoundingBox">
            <stop offset=".201" stop-color="#ffd584"/>
            <stop offset=".917" stop-color="#fcd271"/>
        </linearGradient>
        <linearGradient id="vfox06ufsb" x1="0" y1=".5" x2="1" y2=".5" xlink:href="#6epbd84fea"/>
        <linearGradient id="3tu9v955sc" x1="0" y1=".5" x2="1" y2=".5" xlink:href="#6epbd84fea"/>
        <linearGradient id="7tky6pfq6d" x1="15.529" y1=".6" x2="16.534" y2=".6" xlink:href="#6epbd84fea"/>
    </defs>
    <g data-name="Group 10766" transform="translate(-65.976 -259.755)">
        <ellipse data-name="Ellipse 299" cx="80.242" cy="15.232" rx="80.242" ry="15.232" transform="translate(91.853 423.946)" style="mix-blend-mode:multiply;isolation:isolate;fill:#a5b7c6;opacity:.26"/>
        <path data-name="Path 19539" d="M139.773 300.387c-3.947 10.641-5.878 22.208-12.049 31.731-6.587 10.17-17.251 16.854-27.618 23.125S79 368 72.1 377.958s-8.856 24.46-1.178 33.832c6.05 7.386 16.379 9.8 25.926 9.693a67.4 67.4 0 0 0 42.88-16.227c5.1-4.4 9.536-9.583 14.991-13.538s12.362-6.641 18.918-5.084c5.012 1.191 9.113 4.652 13.325 7.618 14.7 10.356 34.851 15.348 50.795 7.026 12.944-6.758 20.727-21.439 21.124-36.037s-5.882-28.861-15.322-40c-7.193-8.487-16.7-15.605-27.685-17.346-9.344-1.48-20.476.452-26.922-6.471-4.361-4.685-4.764-11.853-8.292-17.192-13.619-20.605-35.511 1.66-40.887 16.155z" transform="translate(0 .865)" style="fill:#fdcc6b"/>
        <g data-name="Group 10710">
            <path data-name="Path 19540" d="M224.9 363.31a9.555 9.555 0 0 0-.092.861c-.024.454-.266 1.41.02 1.8.023.033.8.8.828.456-.164 2.379 2.095.631 2.789-.19a18.215 18.215 0 0 0 3.555-7.342c.351-2.024.892-6.111-1.975-6.589-3.867-.644-5.969 5.282-7.2 7.938 1.234.267 1.964-.58 2.923-1.095-.009.922-.716 3.251-.848 4.161z" transform="translate(8.413 4.961)" style="fill:#ab777d"/>
            <path data-name="Path 19541" d="m209.616 307.232 7.2 4.817 9.111 17.816-.2 27.842s7.438 2.144 7.839.275 3.779-32.472 3.779-32.472l-12.062-26.8z" transform="translate(7.705 2.089)" style="fill:#69b78b"/>
            <path data-name="Path 19542" d="m170.511 305.8 15.586-7.939s7.308-3.924 10.221-.895l3.966 4.122c.389.718-2.252 5.062-3 5.4l-23.6 10.574a56.933 56.933 0 0 0-3.173-11.262z" transform="translate(5.607 1.934)" style="fill:#69b78b"/>
            <path data-name="Path 19543" d="M159.216 283.2c-.1-.255-.2-.507-.318-.752-.186-.387-.425-1.285-.84-1.48-.034-.016-1.031-.3-.892 0-.95-2.039-2.018.435-2.215 1.431a17.156 17.156 0 0 0 .416 7.688c.634 1.831 2.054 5.454 4.638 4.538 3.487-1.234 2.516-7.086 2.318-9.84-1.14.343-1.357 1.375-1.913 2.238-.41-.766-.89-3.011-1.194-3.823z" transform="translate(4.759 1.096)" style="fill:#ab777d"/>
            <path data-name="Path 19544" d="M188.069 310.164c-1.436 1.749-12.284 7.381-14.469 8.031a4.843 4.843 0 0 1-5.745-2.6c-3.45-7.3-10.439-21.346-10.828-22.629-.522-1.726 6.6-3.353 6.6-3.353L176.17 312.7z" transform="translate(4.882 1.601)" style="fill:#69b78b"/>
            <g data-name="Group 10696">
                <path data-name="Path 19545" d="M214.3 434.822c-3.105 2.769-10.874 5.266-12.513 1.688-.661-1.442.256-3.136 1.135-4.459 2.606-3.926 5.159-6.714 4.224-11.814l7.56 1c-.4-.053.154 4.23.256 4.7.55 2.533 1.629 4.864.466 7.47a4.438 4.438 0 0 1-1.128 1.415z" transform="translate(7.273 8.607)" style="fill:#5b89c2"/>
                <g data-name="Group 10695">
                    <path data-name="Path 19546" d="M191.05 420.242c-3.439.769-4.593.582-8.1.057l-6.219 4.26s-7.123 4.56-6.6 6.468 19.454-2.543 19.454-2.543a3.106 3.106 0 0 0 2.252-4.087c-.56-2.032-1.158-2.42-.787-4.155z" transform="translate(5.585 8.608)" style="fill:#5b89c2"/>
                </g>
                <path data-name="Path 19547" d="M221.778 337.777s.407 14.119-.124 17.889c-1.222 8.664-5.015 74.24-4.813 73.478 0 0-5.26 1.364-8.479-.679s-6.818-68.479-6.818-68.479l-1.276-.346-9.047 25.48s2.05 40.276.733 40.477-10.34 1.786-10.925-.469-3.957-43.084-3.957-43.084l14.285-45.5z" transform="translate(5.959 4.118)" style="fill:#5e3c69"/>
                <path data-name="Path 19548" d="M186.941 349.891c2.894 5.528 13.326 9.033 13.326 9.033l-9.047 25.48s2.05 40.276.733 40.477-10.34 1.786-10.925-.469-3.957-43.084-3.957-43.084z" transform="translate(5.959 4.834)" style="opacity:.32;fill:#e29ea6;mix-blend-mode:multiply;isolation:isolate"/>
            </g>
            <g data-name="Group 10709">
                <path data-name="Path 19549" d="m218.729 298.882 1.336 43.255-10.358 1.463a32.243 32.243 0 0 1-14.23-1.183l-3.988-1.26-.166-45.6 13.54-1.663z" transform="translate(6.724 1.831)" style="fill:#fff"/>
                <path data-name="Path 19550" d="m209.445 296.072-5.666 50.556s6.383 10.4 12.675 8.566a27.489 27.489 0 0 0 5.671-2.259l3.034-54.319-14.759-5.679z" transform="translate(7.392 1.78)" style="fill:#69b78b"/>
                <path data-name="Path 19551" d="m197.849 294.69 2.2 51.376s-7 13.38-12.513 6.973c-2.692-.5-2.116-55.879-2.116-55.879l13.13-3.809z" transform="translate(6.404 1.802)" style="fill:#69b78b"/>
                <path data-name="Path 19552" d="M205.831 288.163c1.835.7 3.3.076 5.01-.553.674-.249 1.27-.763 1.9-.995.77-.286 1.436.307 2.191-.512a2.092 2.092 0 0 0 .036-2.7c1.25-.063 1.724-1.641 1.865-2.884l.69-6.069c.2-1.8.392-3.7-.394-5.331s-2.939-2.73-4.462-1.757a4.118 4.118 0 0 0-7.15-3.633 4.179 4.179 0 0 0-8.144 1.078 3.427 3.427 0 0 0-4.507 4.953c-2.275 2.853 1.628 4.162 3.685 4.262 2.741.133 5.493.158 6.517 3.4a10.138 10.138 0 0 1 .237 3.512 8.892 8.892 0 0 0 .323 3.5 3.172 3.172 0 0 0 2.552 2.178" transform="translate(6.769 .059)" style="fill:url(#6epbd84fea)"/>
                <g data-name="Group 10708">
                    <g data-name="Group 10700">
                        <path data-name="Path 19553" d="M213.745 278.538a2.191 2.191 0 0 1 .845 1.991 5.121 5.121 0 0 1-4.02 4.737 1.766 1.766 0 0 1-1.836-.5 1.964 1.964 0 0 1 .213-1.944c.623-1.168 3.023-5.344 4.798-4.284z" transform="translate(7.647 .998)" style="fill:#ab777d"/>
                        <g data-name="Group 10699">
                            <g data-name="Group 10697">
                                <path data-name="Path 19554" d="M213.8 280.291a1.582 1.582 0 0 0-.859.165 3.816 3.816 0 0 0-1.629 1.334 6.394 6.394 0 0 0-.886 1.9 2.692 2.692 0 0 0-.171.849 4.1 4.1 0 0 0 .325-.8 7.912 7.912 0 0 1 .919-1.821 4.179 4.179 0 0 1 1.509-1.32c.465-.226.797-.269.792-.307z" transform="translate(7.738 1.1)" style="fill:#5e3c69"/>
                            </g>
                            <g data-name="Group 10698">
                                <path data-name="Path 19555" d="M210.977 284.179c.025.018.154-.1.335-.309a3.463 3.463 0 0 0 .584-.931 1.934 1.934 0 0 0 .118-1.109c-.064-.286-.185-.428-.209-.414s.031.175.048.437a2.289 2.289 0 0 1-.171 1 5.935 5.935 0 0 1-.5.922c-.146.232-.23.384-.205.404z" transform="translate(7.777 1.161)" style="fill:#5e3c69"/>
                            </g>
                        </g>
                    </g>
                    <path data-name="Path 19556" d="m199.967 288.323 7.667-3.231.664 8.932c.014 1.311-1.35 3.451-2.837 3.668l-1.431.21c-1.7.249-3.752-1.2-3.863-2.689z" transform="translate(7.187 1.359)" style="fill:#ab777d"/>
                    <path data-name="Path 19557" d="m207.842 292.577-.209-7.486-7.623 3.533.488 5.806a16.173 16.173 0 0 0 7.344-1.853z" transform="translate(7.189 1.359)" style="opacity:.32;fill:#ab777d;mix-blend-mode:multiply;isolation:isolate"/>
                    <path data-name="Path 19558" d="M194.27 283.227a9.165 9.165 0 0 0 1.965 5.873c2.42 3.031 5.745 3.521 9.277 2.468 2.935-.877 4.46-2.221 5.214-5.256.784-3.15 2.021-6.22 1.213-9.466a8.8 8.8 0 0 0-2.6-4.373 17.845 17.845 0 0 0-3.839-2.555c-2.277-1.232-5.693-2.855-7.991-.192-2.65 3.071-3.085 9.471-3.24 13.353.003.05.002.099.001.148z" transform="translate(6.881 .458)" style="fill:#ab777d"/>
                    <g data-name="Group 10707">
                        <g data-name="Group 10701">
                            <path data-name="Path 19559" d="M207.619 277.475c.073-.045-.023-.247-.337-.487a3.624 3.624 0 0 0-1.546-.615 4.494 4.494 0 0 0-1.782.05c-.44.113-.66.26-.625.325.076.141 1.069-.061 2.221.147 1.161.184 1.906.682 2.069.58z" transform="translate(7.367 .889)" style="fill:url(#vfox06ufsb)"/>
                        </g>
                        <g data-name="Group 10702">
                            <path data-name="Path 19560" d="M200.583 275.923c0-.073-.28-.207-.769-.322a7.105 7.105 0 0 0-1.859-.171 3.6 3.6 0 0 0-1.515.335c-.3.175-.3.373-.166.421a1.725 1.725 0 0 0 .677-.048 16.5 16.5 0 0 1 1.418-.126 10.156 10.156 0 0 0 2.214-.089z" transform="translate(6.985 .841)" style="fill:url(#3tu9v955sc)"/>
                        </g>
                        <path data-name="Path 19561" d="M200.372 278.088a23.445 23.445 0 0 0-.409 1.593l-.357 1.582-.087.4-.041.194a.367.367 0 0 1-.039.1.374.374 0 0 1-.183.154.521.521 0 0 1-.137.036.657.657 0 0 0-.3.111.709.709 0 0 0-.28.483.925.925 0 0 0 .071.488 1.629 1.629 0 0 0 .6.627 2.182 2.182 0 0 1-.328-.712.48.48 0 0 1 .181-.509.221.221 0 0 1 .09-.009.975.975 0 0 0 .266-.039.887.887 0 0 0 .469-.32.778.778 0 0 0 .131-.269l.055-.2.1-.4a11.432 11.432 0 0 0 .238-1.638 8.1 8.1 0 0 0-.04-1.672z" transform="translate(7.11 .984)" style="fill:#5e3c69"/>
                        <g data-name="Group 10704">
                            <g data-name="Group 10703">
                                <path data-name="Path 19562" d="M199.063 286.031c.052-.026.195.093.46.237a3.084 3.084 0 0 0 1.167.352 3.878 3.878 0 0 0 1.31-.12c.337-.086.545-.173.577-.139s-.129.181-.483.332a3.192 3.192 0 0 1-1.5.225 2.348 2.348 0 0 1-1.28-.488c-.239-.205-.297-.378-.251-.399z" transform="translate(7.138 1.409)" style="fill:#5e3c69"/>
                            </g>
                        </g>
                        <g data-name="Group 10705">
                            <path data-name="Path 19563" d="M199.142 279.486a1.23 1.23 0 0 0-1.279-.779 2.438 2.438 0 0 0-.79.181 2.8 2.8 0 0 0-.769.459l-.032.027a.063.063 0 0 1-.1-.009c-.083-.122.017-.264.135-.193l-.131.019a2.313 2.313 0 0 1 .791-.763 1.91 1.91 0 0 1 .955-.269 1.2 1.2 0 0 1 .877.348 1.291 1.291 0 0 1 .343.979z" transform="translate(6.982 .988)" style="fill:#5e3c69"/>
                        </g>
                        <g data-name="Group 10706">
                            <path data-name="Path 19564" d="M202.83 280.078a1.926 1.926 0 0 1 .879-.5 2.222 2.222 0 0 1 .946 0 3.331 3.331 0 0 1 .915.339 3.089 3.089 0 0 1 .8.6l.032.033a.094.094 0 0 0 .123.012c.14-.1.063-.261-.1-.216l.154.045a2.17 2.17 0 0 0-.732-.905 2.555 2.555 0 0 0-1.091-.458 1.943 1.943 0 0 0-1.192.16 1.4 1.4 0 0 0-.734.89z" transform="translate(7.341 1.033)" style="fill:#5e3c69"/>
                        </g>
                    </g>
                </g>
                <path data-name="Path 19565" d="M203.2 274.321c-1.151-.519-1.256-2.422-2.487-2.709-1.359-.315-2.1 1.636-3.4 2.141a2.172 2.172 0 0 1-2.6-1.148 3.13 3.13 0 0 1 .3-2.958 6.141 6.141 0 0 1 2.334-2.01c7.22-3.918 15.743.526 15.912 8.743.039 1.909-.559 4.091-2.656 2.2-1.487-1.341-.3-4.56-2.422-5.411-1.836-.735-3.23 1.944-4.981 1.152z" transform="translate(6.892 .345)" style="fill:url(#6epbd84fea)"/>
                <path data-name="Path 19566" d="m209.29 334.807 8.278 2.855-.373 1.907-7.834-2.509z" transform="translate(7.687 4.025)" style="fill:#fff"/>
                <path data-name="Path 19567" d="m196.686 334.565-8.378 2.546.3 1.919 7.922-2.217z" transform="translate(6.562 4.012)" style="fill:#fff"/>
                <path data-name="Path 19568" d="m209.348 295.19-5.568 51.345 1.42 2.165 6.292-54.059z" transform="translate(7.392 1.871)" style="fill:url(#6epbd84fea)"/>
                <path data-name="Path 19569" d="M197.246 291.549c-1.443.949-1.376 3.261-.255 4.576 3 3.511 9.279 2.989 12.845.842a4.6 4.6 0 0 0 2.075-2.173 2.125 2.125 0 0 0-.873-2.645 3.254 3.254 0 0 0-2.116.033 20.067 20.067 0 0 1-5.817.954c-.832-.044-5.587-1.766-5.859-1.587z" transform="translate(6.983 1.704)" style="fill:#fff"/>
                <path data-name="Path 19570" d="M196.168 293.855A3.647 3.647 0 0 0 197 296c3 3.511 9.279 2.989 12.845.842a4.622 4.622 0 0 0 2.068-2.158 2.41 2.41 0 0 1-.126 1.108 4.6 4.6 0 0 1-2.075 2.173c-3.567 2.147-9.85 2.669-12.845-.842a3.608 3.608 0 0 1-.699-3.268z" transform="translate(6.976 1.829)" style="fill:#cfcfcf;opacity:.32;mix-blend-mode:multiply;isolation:isolate"/>
            </g>
        </g>
        <g data-name="Group 10729">
            <path data-name="Path 19571" d="M159.007 297.493a.622.622 0 0 0-.785-.252 1.636 1.636 0 0 0-.649.592c-.455.607-3.328 4.145-3.134 4.736a7.7 7.7 0 0 1-.1-1.467c-.417-3.238-2.128 2.317-2.265 2.674-.707 1.843-1.991 3.4-2.7 5.286-.628 1.671-1.151 3.535-1.732 5.128-.251.689-2.337 5.3-1.675 5.869l-13.341-8.822a12.32 12.32 0 0 0-3.51-1.811c-2.865-.763-5.741.547-3.873 3.669 1.98 3.306 4.786 7.479 8.1 9.574 3.8 2.4 8.764 3.809 12.893 5.6a3.971 3.971 0 0 0 2.251.485c1.506-.283 2.116-2.07 2.441-3.568l3.459-15.856c2.441-1.4 4.745-2.642 5.62-6a3.612 3.612 0 0 0 .085-1.843 1.761 1.761 0 0 0-1.249-1.3l.207-2.252a.882.882 0 0 0-.043-.442z" transform="translate(3.147 2.008)" style="fill:#e29ea6"/>
            <path data-name="Path 19572" d="m131.23 310.006 10.975 5.978-1.949 11.542-10.789-5.877-1.034-11.84z" transform="translate(3.35 2.685)" style="fill:url(#6epbd84fea)"/>
            <g data-name="Group 10712">
                <path data-name="Path 19573" d="M109.331 339.744c-1.821 2.6-2.235 6.17-2.314 9.445-.185 7.713.952 15.366 1.5 23.03q.849 11.853 1.616 23.711c-2.615 4.066 3.383 33.554 3.3 33.258 0 0 1.4.769 4-.879 1.18-.749 2.737-23.414 2.533-31.58a163.906 163.906 0 0 0 1.321-41.468l9.974 38.081s.954 9.716 2.179 32.376c1.062.161 5.571 1.717 6.043-.1s1.919-37.87 1.919-37.87l-8.37-48.178c0-.133-10.22-.809-10.877-.862-1.955-.155-4.6 1.237-6.019-.111a6.713 6.713 0 0 0-1.574-1.333 3.638 3.638 0 0 0-3.719.839 8.116 8.116 0 0 0-1.512 1.641z" transform="translate(2.2 4.145)" style="fill:#e29ea6"/>
                <path data-name="Path 19574" d="M132.232 339.482c0-.115-7.6-.634-10.11-.808-.133 7.894-.3 15.788.242 23.662l8.1 30.919s.954 9.716 2.179 32.376c1.062.161 5.571 1.717 6.043-.1s1.919-37.87 1.919-37.87z" transform="translate(3.004 4.233)" style="opacity:.32;fill:#e29ea6;mix-blend-mode:multiply;isolation:isolate"/>
                <path data-name="Path 19575" d="M112.195 432.566c2.5 2.234 8.77 4.248 10.094 1.362.533-1.164-.207-2.53-.916-3.6-2.1-3.166-4.162-5.416-3.407-9.53l-6.1.808c.318-.042-.124 3.414-.207 3.794-.445 2.043-1.315 3.923-.376 6.026a3.58 3.58 0 0 0 .912 1.14z" transform="translate(2.408 8.638)" style="fill:#5e3c69"/>
                <g data-name="Group 10711">
                    <path data-name="Path 19576" d="M131.649 420.223a13.836 13.836 0 0 0 6.538.046l5.016 3.437s5.747 3.678 5.321 5.218-15.694-2.051-15.694-2.051a2.507 2.507 0 0 1-1.816-3.3c.453-1.637.935-1.949.635-3.35z" transform="translate(3.481 8.607)" style="fill:#5e3c69"/>
                </g>
            </g>
            <g data-name="Group 10727">
                <path data-name="Path 19577" d="M127.558 307.948c1.8.394 4.915 1.73 4.789 2.236-.837 3.334 1.5 6.311 1.042 9.635a21 21 0 0 1-3.325 9.319c-.6.854-16.614 2-19.507-1.435-3.525-4.183-1.834-8.049-1.211-12.969.192-1.514-1.534-2.4-1.725-3.689 1.192-2.272 6.521-4.421 8.865-4.55a68.846 68.846 0 0 1 11.072 1.453z" transform="translate(2.234 2.507)" style="fill:url(#7tky6pfq6d)"/>
                <path data-name="Path 19578" d="M127.558 307.948c1.8.394 4.915 1.73 4.789 2.236-.837 3.334 1.5 6.311 1.042 9.635a21 21 0 0 1-3.325 9.319c-.6.854-16.614 2-19.507-1.435-3.525-4.183-1.834-8.049-1.211-12.969.192-1.514-1.534-2.4-1.725-3.689 1.192-2.272 6.521-4.421 8.865-4.55a68.846 68.846 0 0 1 11.072 1.453z" transform="translate(2.234 2.507)" style="fill:#cfcfcf;opacity:.32;mix-blend-mode:multiply;isolation:isolate"/>
                <g data-name="Group 10726">
                    <path data-name="Path 19579" d="M112.2 282.755a11.565 11.565 0 0 1 6.051-1.964 13.042 13.042 0 0 1 8.05 1.779 8.522 8.522 0 0 1 3.986 7.187l-8.867 10.412a2.951 2.951 0 0 1-2.65 2.973 6.135 6.135 0 0 1-4.038-1.309 14.177 14.177 0 0 1-6.168-8.988c-.674-3.722.645-7.907 3.636-10.09z" transform="translate(2.275 1.126)" style="fill:#5e3c69"/>
                    <g data-name="Group 10725">
                        <path data-name="Path 19580" d="M116.584 308.653c-.871-.777-1.841.692-2.573-.156.109-.035.768-.913.876-.949 2.191-2.32 2.906-5.3 4.121-7.842l7.439.688-1.874 3.422c-.361.66-1.418 1.643-1.363 2.438.018.25.936.822 2.193 1.518-1.43 3.205-6.85 3.334-8.819.881z" transform="translate(2.577 2.143)" style="fill:#e29ea6"/>
                        <path data-name="Path 19581" d="m116.632 304.386 2.235-4.681 7.439.688-3.205 5.85a14.345 14.345 0 0 1-6.469-1.857z" transform="translate(2.717 2.143)" style="opacity:.32;fill:#e29ea6;mix-blend-mode:multiply;isolation:isolate"/>
                        <path data-name="Path 19582" d="M115.984 300.276c-.686.392-1.51-.261-1.741-1.1a6.745 6.745 0 0 1 .045-2.248c.03-.644-.02-1.262.041-1.917a13.159 13.159 0 0 1 1.079-4.639 7.813 7.813 0 0 1 3.2-3.286 17.255 17.255 0 0 1 4.016-1.492c2.33-.641 5.782-1.409 7.41 1.306.944 1.575.42 4.535.716 6.408a18.528 18.528 0 0 1 .462 6.053 9.139 9.139 0 0 1-1.771 3.87 5.056 5.056 0 0 1-3.025 1.773c-3.801 1.104-9.101.223-10.432-4.728z" transform="translate(2.584 1.353)" style="fill:#e29ea6"/>
                        <g data-name="Group 10716">
                            <path data-name="Path 19583" d="M115.216 300.266a4.843 4.843 0 0 1-3.566-4.655 2.069 2.069 0 0 1 .884-1.84c1.716-.917 3.786 3.136 4.319 4.268a1.858 1.858 0 0 1 .113 1.844 1.655 1.655 0 0 1-1.75.383z" transform="translate(2.45 1.818)" style="fill:#e29ea6"/>
                            <g data-name="Group 10715">
                                <g data-name="Group 10713">
                                    <path data-name="Path 19584" d="M112.281 295.419a1.511 1.511 0 0 1 .8.2 3.612 3.612 0 0 1 1.471 1.335 6.028 6.028 0 0 1 .748 1.835 2.566 2.566 0 0 1 .122.809 3.932 3.932 0 0 1-.269-.768 7.549 7.549 0 0 0-.783-1.761 3.956 3.956 0 0 0-1.359-1.316c-.429-.242-.738-.297-.73-.334z" transform="translate(2.484 1.913)" style="fill:#5e3c69"/>
                                </g>
                                <g data-name="Group 10714">
                                    <path data-name="Path 19585" d="M114.642 299.213c-.024.017-.14-.1-.3-.306a3.293 3.293 0 0 1-.507-.907 1.825 1.825 0 0 1-.061-1.052c.074-.267.194-.4.215-.38s-.036.163-.065.41a2.177 2.177 0 0 0 .115.952 5.59 5.59 0 0 0 .431.892c.124.226.196.378.172.391z" transform="translate(2.561 1.975)" style="fill:#5e3c69"/>
                                </g>
                            </g>
                        </g>
                        <g data-name="Group 10724">
                            <g data-name="Group 10717">
                                <path data-name="Path 19586" d="M118.811 294.29c-.072-.038 0-.235.281-.484a3.4 3.4 0 0 1 1.406-.689 4.205 4.205 0 0 1 1.676-.08c.421.074.639.2.611.26-.062.138-1.009.019-2.076.3-1.075.255-1.739.776-1.898.693z" transform="translate(2.832 1.783)" style="fill:#5e3c69"/>
                            </g>
                            <g data-name="Group 10718">
                                <path data-name="Path 19587" d="M123.106 300.794a2.685 2.685 0 0 1-1.369-.774c-.239-.277-.275-.484-.22-.5s.205.139.483.349a3.516 3.516 0 0 0 1.264.6 4.486 4.486 0 0 0 1.511.09c.4-.041.648-.1.68-.059s-.177.183-.606.3a3.667 3.667 0 0 1-1.743-.006z" transform="translate(2.977 2.133)" style="fill:#5e3c69"/>
                            </g>
                            <g data-name="Group 10719">
                                <path data-name="Path 19588" d="M126.348 292.959c0-.067.184-.162.51-.218a3.4 3.4 0 0 1 1.248.036 2.276 2.276 0 0 1 1.029.47c.209.194.209.377.123.409s-.227-.039-.457-.116a9.022 9.022 0 0 0-.959-.267c-.768-.173-1.479-.173-1.494-.314z" transform="translate(3.238 1.767)" style="fill:#5e3c69"/>
                            </g>
                            <path data-name="Path 19589" d="M125.166 293.807a7.741 7.741 0 0 0-.207 1.55 11 11 0 0 0 .047 1.558l.046.387.015.1c.007.042.017.083.028.125a.962.962 0 0 0 .1.234.917.917 0 0 0 .379.353.813.813 0 0 0 .25.077.205.205 0 0 1 .082.019.456.456 0 0 1 .114.5 2.092 2.092 0 0 1-.382.632 1.532 1.532 0 0 0 .623-.523.871.871 0 0 0 .12-.448.674.674 0 0 0-.205-.483.61.61 0 0 0-.266-.139.365.365 0 0 1-.112-.048.435.435 0 0 1-.157-.186.738.738 0 0 1-.044-.122c0-.021-.008-.042-.009-.063l-.009-.09-.039-.379-.164-1.518a20.269 20.269 0 0 0-.21-1.536z" transform="translate(3.163 1.827)" style="fill:#5e3c69"/>
                            <g data-name="Group 10721">
                                <g data-name="Group 10720">
                                    <path data-name="Path 19590" d="M121.629 296.815c-.272.04-.587-.28-.613-.728s.242-.846.515-.878.45.308.478.746-.109.819-.38.86z" transform="translate(2.952 1.902)" style="fill:#5e3c69"/>
                                </g>
                                <path data-name="Path 19591" d="M121.514 295.606a1.052 1.052 0 0 1-.644-.525.624.624 0 0 0 .417.79.977.977 0 0 1-.943-.173 1.02 1.02 0 0 0 1.171.386" transform="translate(2.916 1.895)" style="fill:#5e3c69"/>
                            </g>
                            <g data-name="Group 10723">
                                <g data-name="Group 10722">
                                    <path data-name="Path 19592" d="M127.207 296.793c.272.038.585-.284.608-.733s-.25-.844-.522-.872-.448.31-.473.749.112.817.387.856z" transform="translate(3.263 1.901)" style="fill:#5e3c69"/>
                                </g>
                                <path data-name="Path 19593" d="M127.322 295.583a1.051 1.051 0 0 0 .64-.53.624.624 0 0 1-.41.793.975.975 0 0 0 .941-.18 1.021 1.021 0 0 1-1.167.4" transform="translate(3.29 1.894)" style="fill:#5e3c69"/>
                            </g>
                        </g>
                        <path data-name="Path 19594" d="M122.246 302a2.009 2.009 0 0 1-1.215-2.731l5.193 1.133a3.089 3.089 0 0 1-3.978 1.598z" transform="translate(2.944 2.12)" style="fill:#5e3c69"/>
                        <path data-name="Path 19595" d="M122.245 301.939a1.874 1.874 0 0 1-1.36-1.536h.018a2.7 2.7 0 0 1 2.139.472 2.519 2.519 0 0 1 .9 1.27 3.332 3.332 0 0 1-1.697-.206z" transform="translate(2.945 2.177)" style="fill:#cd4b76"/>
                    </g>
                    <path data-name="Path 19596" d="M126.024 295.778a3.573 3.573 0 1 0 3.613-3.532 3.573 3.573 0 0 0-3.613 3.532z" transform="translate(3.221 1.743)" style="fill:none;stroke:#fff;stroke-miterlimit:10;stroke-width:1.107px"/>
                    <path data-name="Path 19597" d="M117.627 296.235a3.573 3.573 0 1 0 3.613-3.533 3.574 3.574 0 0 0-3.613 3.533z" transform="translate(2.77 1.767)" style="fill:none;stroke:#fff;stroke-miterlimit:10;stroke-width:1.107px"/>
                    <path data-name="Path 19598" d="M126.672 296.5a3 3 0 0 0-2.793-.239" transform="translate(3.106 1.945)" style="fill:none;stroke:#fff;stroke-miterlimit:10;stroke-width:1.107px"/>
                    <path data-name="Path 19599" d="M118.111 295.767a19.392 19.392 0 0 0-5.011-2.167c-.311-.084-.753-.092-.837.22" transform="translate(2.482 1.813)" style="fill:none;stroke:#fff;stroke-miterlimit:10;stroke-width:1.107px"/>
                    <path data-name="Path 19600" d="M126.551 292.494a19.089 19.089 0 0 1-6.206-2.381c.585.308-4.621 4.519-5.395 4.7-2.629.629-2.85-2.91-2.633-4.819.252-2.223.731-4.338 2.692-5.528a13.351 13.351 0 0 1 14.7.606c1.4 1 4 3.292 2.893 5.245-.975 1.728-3.671 2.353-5.474 2.232a7.408 7.408 0 0 1-.577-.055z" transform="translate(2.482 1.223)" style="fill:#5e3c69"/>
                </g>
                <path data-name="Path 19601" d="m130.543 328.059 14.505 53.112s-26.513 17.539-46.367.105l12.355-54.652a32.119 32.119 0 0 0 19.507 1.435z" transform="translate(1.754 3.587)" style="fill:#5e3c69"/>
                <path data-name="Path 19602" d="m123.793 306.5-3.5 3.37.969.77a3.177 3.177 0 0 0 4.568-.65l1.366-1.924z" transform="translate(2.913 2.507)" style="fill:#fff"/>
                <path data-name="Path 19603" d="m120.742 309.885-5.083-3.744-3.679 1.649 1.883 1.907a4.074 4.074 0 0 0 5.651 1.03z" transform="translate(2.467 2.488)" style="fill:#fff"/>
            </g>
            <path data-name="Rectangle 1770" transform="rotate(30 -535.346 412.583)" style="fill:#fff" d="M0 0h18.032v23.89H0z"/>
            <path data-name="Path 19604" d="M105.27 315.489c-1.7 4.591-4.283 9.5-5.125 14.335-.258 1.485-.454 4.041.277 5.359.883 1.592 3.025 1.69 4.631 1.675l12.2-.111c1.853-.017 3.907-.547 5.745-.239.693.116 6.386 2.98 6.306 3.353a1.177 1.177 0 0 0 1.017 1.3 1.862 1.862 0 0 0 1.624-.724 4.742 4.742 0 0 0 .8-1.665 5.9 5.9 0 0 0 .31-3.13 4.521 4.521 0 0 0-.837-1.644c-3-3.931-7.88-2.093-12.045-2.749-.993-.156-11.238-1.259-11.374-.884l4.149-11.545c.995-2.767 1.73-7.165-1.871-8.54-3.135-1.189-4.977 2.961-5.807 5.209z" transform="translate(1.82 2.699)" style="fill:#e29ea6"/>
            <path data-name="Path 19605" d="m100.568 324.05 10.367 3.529s4.937-13.2 4.07-14.443c-2.1-3-2.366-4.3-4.809-4.3s-8.108 3.47-9.628 15.214z" transform="translate(1.855 2.632)" style="fill:url(#6epbd84fea)"/>
            <g data-name="Group 10728">
                <path data-name="Path 19606" d="m152.628 260.229-14.525-.472a2.955 2.955 0 0 0-3.262 2.532l-.345 10.638a2.954 2.954 0 0 0 3.09 2.738l1.936.063a5.623 5.623 0 0 1-1.413 3.03 11.9 11.9 0 0 0 3.922-.915 4.2 4.2 0 0 0 1.993-1.97l8.088.262a2.954 2.954 0 0 0 3.262-2.532l.346-10.638a2.955 2.955 0 0 0-3.092-2.736z" transform="translate(3.675)" style="fill:#cd4b76"/>
                <path data-name="Path 19607" d="M141.268 267.509a1.8 1.8 0 1 1-1.736-1.854 1.795 1.795 0 0 1 1.736 1.854z" transform="translate(3.846 .316)" style="fill:#fff"/>
                <path data-name="Path 19608" d="M146.5 267.679a1.8 1.8 0 1 1-1.736-1.854 1.795 1.795 0 0 1 1.736 1.854z" transform="translate(4.126 .325)" style="fill:#fff"/>
                <path data-name="Path 19609" d="M151.736 267.848A1.8 1.8 0 1 1 150 266a1.8 1.8 0 0 1 1.736 1.848z" transform="translate(4.407 .335)" style="fill:#fff"/>
            </g>
            <path data-name="Path 19610" d="M118.806 281.662a19.01 19.01 0 0 0-28.262-5.192 25.952 25.952 0 0 0-6.755 8.835 21.929 21.929 0 0 0-2.652 9.995c.066 4.089 1.794 7.968 2.317 12.024.546 4.269-.254 8.592-1.254 12.776-.724 3.028-1.456 6.557.493 8.986 2.206 2.749 6.829 2.267 9.429-.114s3.64-5.988 4.366-9.437c.9-4.264 1.489-8.7.572-12.962-.988-4.595-3.7-8.851-3.65-13.55.071-6.835 6.7-12.592 13.539-12.588a15.139 15.139 0 0 1 13.006 7.723" transform="translate(.813 .673)" style="fill:#5e3c69"/>
        </g>
    </g>
</svg>
